<?xml version="1.0" encoding="utf-8"?>
<!-- Generator: Adobe Illustrator 23.0.6, SVG Export Plug-In . SVG Version: 6.00 Build 0)  -->
<svg version="1.1" id="Layer_1" xmlns="http://www.w3.org/2000/svg" xmlns:xlink="http://www.w3.org/1999/xlink" x="0px" y="0px"
	 viewBox="0 0 153.3 45.4" style="enable-background:new 0 0 153.3 45.4;" xml:space="preserve">
<style type="text/css">
	.st0{fill:#002169;}
</style>
<g>
	<polygon class="st0" points="60.2,14 61.7,14 61.7,11.8 56.6,11.8 52.9,21.4 49.2,11.8 44.1,11.8 44.1,14 45.5,14 45.5,23.2 
		44.1,23.2 44.1,25.4 49.7,25.4 49.7,23.2 48.1,23.2 48.1,15.3 52,25.4 53.8,25.4 57.6,15.3 57.6,23.2 56.1,23.2 56.1,25.4 
		61.7,25.4 61.7,23.2 60.2,23.2 60.2,14 	"/>
	<path class="st0" d="M66.9,23.4c-1.6,0-3-1.4-3-3c0-1.7,1.3-3.1,3.1-3.1c1.7,0,3.1,1.4,3.1,3C70,22,68.7,23.4,66.9,23.4 M70,25.4
		h3.6v-2.2h-1.3v-5.8h1.3v-2.2H70v1.5c-0.7-1.1-1.9-1.7-3.2-1.7c-3,0-5.3,2.5-5.3,5.4c0,2.9,2.3,5.3,5.2,5.3c1.3,0,2.5-0.5,3.3-1.6
		V25.4L70,25.4z"/>
	<path class="st0" d="M75.7,23.2h-1.3v2.2h5v-2.2H78v-3c0-0.7,0-1.6,0.4-2.1c0.4-0.6,1.1-0.9,1.8-0.9c0.7,0,1.4,0.3,1.8,0.8
		c0.4,0.6,0.4,1.2,0.4,1.8v3.3h-1.3v2.2h5v-2.2h-1.3v-4c0-1.2,0-2.1-0.9-3C83.2,15.5,82.1,15,81,15c-1.3,0-2.4,0.6-3,1.7v-1.4h-3.6
		v2.2h1.3V23.2L75.7,23.2z"/>
	<path class="st0" d="M90.4,11.8h-3.6V14h1.3v9.3h-1.3v2.2h5v-2.2h-1.3v-3.1c0-0.8,0-1.4,0.5-2c0.4-0.5,1.1-0.8,1.8-0.8
		c0.7,0,1.4,0.3,1.8,0.9c0.4,0.6,0.3,1.4,0.3,2.1v2.9h-1.3v2.2h5v-2.2h-1.3v-3.5c0-1.2-0.1-2.2-0.8-3.2c-0.7-0.9-1.7-1.5-2.9-1.5
		c-1.3,0-2.4,0.6-3.1,1.8V11.8L90.4,11.8z"/>
	<path class="st0" d="M103.6,23.4c-1.6,0-3-1.4-3-3c0-1.7,1.3-3.1,3.1-3.1c1.7,0,3.1,1.4,3.1,3C106.7,22,105.3,23.4,103.6,23.4
		 M106.6,25.4h3.6v-2.2H109v-5.8h1.3v-2.2h-3.6v1.5c-0.7-1.1-1.9-1.7-3.2-1.7c-3,0-5.3,2.5-5.3,5.4c0,2.9,2.3,5.3,5.2,5.3
		c1.3,0,2.5-0.5,3.3-1.6V25.4L106.6,25.4z"/>
	<polygon class="st0" points="114.7,17.4 116.4,17.4 116.4,15.2 114.7,15.2 114.7,11.8 112.3,11.8 112.3,15.2 110.7,15.2 
		110.7,17.4 112.3,17.4 112.3,25.4 116.5,25.4 116.5,23.2 114.7,23.2 114.7,17.4 	"/>
	<polygon class="st0" points="121.1,17.4 122.9,17.4 122.9,15.2 121.1,15.2 121.1,11.8 118.8,11.8 118.8,15.2 117.2,15.2 
		117.2,17.4 118.8,17.4 118.8,25.4 123,25.4 123,23.2 121.1,23.2 121.1,17.4 	"/>
	<path class="st0" d="M128.2,23.4c-1.6,0-3-1.4-3-3c0-1.7,1.3-3.1,3.1-3.1c1.7,0,3.1,1.4,3.1,3C131.3,22,129.9,23.4,128.2,23.4
		 M131.2,25.4h3.6v-2.2h-1.3v-5.8h1.3v-2.2h-3.6v1.5c-0.7-1.1-1.8-1.7-3.2-1.7c-3,0-5.3,2.5-5.3,5.4c0,2.9,2.3,5.3,5.2,5.3
		c1.3,0,2.5-0.5,3.3-1.6V25.4L131.2,25.4z"/>
	<path class="st0" d="M136.7,23.2h-1.3v2.2h5v-2.2h-1.3v-3c0-0.7,0-1.6,0.4-2.1c0.4-0.6,1.1-0.9,1.9-0.9c0.7,0,1.4,0.3,1.8,0.8
		c0.4,0.6,0.4,1.2,0.4,1.8v3.3h-1.3v2.2h5v-2.2h-1.3v-4c0-1.2,0-2.1-0.9-3c-0.7-0.8-1.8-1.3-2.9-1.3c-1.3,0-2.4,0.6-3,1.7v-1.4h-3.6
		v2.2h1.3V23.2L136.7,23.2z"/>
	<path class="st0" d="M29.8,16.1l2.4,4.5l-2.9,5.3l-2.8-5.3l2.4-4.4c0.1-0.2,0.3-0.3,0.5-0.3C29.5,15.8,29.7,15.9,29.8,16.1
		 M27.8,12.5l-7.2,13.4l-2.9-5.3l6.7-12.4C24.5,8,24.7,7.8,25,7.8c0.2,0,0.4,0.1,0.5,0.3L27.8,12.5L27.8,12.5z M19.2,12.4l-7.3,13.6
		l-2.9-5.3l6.6-12.4c0.1-0.2,0.4-0.4,0.6-0.4c0.3,0,0.5,0.1,0.6,0.4L19.2,12.4L19.2,12.4z M35.1,20.6l-8-15
		c-0.4-0.8-1.2-1.3-2.2-1.3c-1,0-1.8,0.5-2.2,1.3l-2.1,3.9l-2.1-3.9c-0.4-0.7-1.3-1.2-2.2-1.2c-1,0-1.9,0.5-2.3,1.3l-8,14.9
		l5.8,10.9l4.3-8.1l4.3,8.1l4.4-8.1l4.4,8.1L35.1,20.6L35.1,20.6z"/>
	<path class="st0" d="M49.9,33.3c-0.4-0.7-1.2-1-1.9-1c-1.3,0-2.2,1-2.2,2.3c0,1.2,1,2.3,2.2,2.3c0.8,0,1.5-0.4,1.9-1h1.4
		c-0.5,1.4-1.9,2.4-3.3,2.4c-0.9,0-1.9-0.4-2.5-1.1c-0.7-0.7-1-1.6-1-2.6c0-1.9,1.6-3.6,3.5-3.6c0.8,0,1.6,0.3,2.1,0.8v-0.7h1.1v2.2
		H49.9L49.9,33.3z"/>
	<path class="st0" d="M55.9,35.5c0-0.8-0.7-1.6-1.5-1.6c-0.8,0-1.6,0.7-1.6,1.5c0,0.8,0.7,1.6,1.5,1.6C55.2,37,55.9,36.3,55.9,35.5
		L55.9,35.5z M51.7,35.5c0-1.5,1.2-2.7,2.7-2.7c1.5,0,2.7,1.2,2.7,2.7c0,1.5-1.2,2.7-2.7,2.7C52.8,38.2,51.7,36.9,51.7,35.5
		L51.7,35.5z"/>
	<path class="st0" d="M57.9,34h-0.7v-1.1h1.8v0.7c0.3-0.6,0.9-0.8,1.5-0.8c0.6,0,1.1,0.2,1.5,0.6c0.4,0.5,0.4,0.9,0.4,1.5v2h0.7V38
		h-2.5v-1.1h0.7v-1.7c0-0.3,0-0.6-0.2-0.9c-0.2-0.3-0.6-0.4-0.9-0.4c-0.4,0-0.7,0.1-0.9,0.4c-0.2,0.3-0.2,0.7-0.2,1.1v1.5h0.7V38
		h-2.5v-1.1h0.7V34L57.9,34z"/>
	<path class="st0" d="M64.7,36.5c0,0.5,0.3,0.8,0.8,0.8c0.4,0,0.7-0.2,0.7-0.6c0-0.5-0.5-0.6-0.9-0.7c-0.9-0.2-1.9-0.5-1.9-1.6
		c0-1,0.8-1.5,1.7-1.5c0.5,0,0.9,0.1,1.2,0.5v-0.4h0.9v1.4h-1.1c0-0.4-0.3-0.6-0.7-0.6c-0.3,0-0.7,0.2-0.7,0.5
		c0,0.5,0.5,0.6,0.8,0.7c0.9,0.2,1.9,0.5,1.9,1.7c0,1-0.9,1.6-1.8,1.6c-0.5,0-1-0.2-1.3-0.6V38h-0.9v-1.5H64.7L64.7,36.5z"/>
	<polygon class="st0" points="69.8,36.9 70.7,36.9 70.7,38 68.6,38 68.6,34 67.8,34 67.8,32.9 68.6,32.9 68.6,31.2 69.8,31.2 
		69.8,32.9 70.6,32.9 70.6,34 69.8,34 69.8,36.9 	"/>
	<path class="st0" d="M72.8,33.8c0.3-0.6,0.9-0.9,1.5-0.9v1.2c-0.4,0-0.7,0.1-1,0.4c-0.4,0.3-0.4,0.7-0.4,1.2v1.3h0.7V38h-2.5v-1.1
		h0.7V34h-0.7v-1.1h1.7V33.8L72.8,33.8z"/>
	<path class="st0" d="M79.9,36.9h0.7V38h-1.7v-0.6c-0.3,0.5-1,0.8-1.5,0.8c-0.5,0-1.1-0.2-1.4-0.7c-0.4-0.4-0.5-0.9-0.5-1.5v-2h-0.7
		v-1.1h1.8v2.8c0,0.3,0,0.7,0.2,1c0.2,0.3,0.5,0.4,0.9,0.4c0.3,0,0.7-0.2,0.9-0.4c0.2-0.3,0.2-0.7,0.2-1V34H78v-1.1h1.8V36.9
		L79.9,36.9z"/>
	<path class="st0" d="M86.1,36.3c-0.3,1.1-1.4,1.9-2.5,1.9c-1.5,0-2.7-1.2-2.7-2.7c0-1.4,1.1-2.7,2.6-2.7c0.6,0,1.1,0.2,1.5,0.6
		v-0.5h1v1.7h-1.1c-0.3-0.4-0.8-0.7-1.3-0.7c-0.9,0-1.5,0.7-1.5,1.6c0,0.9,0.7,1.5,1.5,1.5c0.5,0,1-0.3,1.2-0.7H86.1L86.1,36.3z"/>
	<polygon class="st0" points="88.4,36.9 89.3,36.9 89.3,38 87.2,38 87.2,34 86.4,34 86.4,32.9 87.2,32.9 87.2,31.2 88.4,31.2 
		88.4,32.9 89.3,32.9 89.3,34 88.4,34 88.4,36.9 	"/>
	<path class="st0" d="M91.6,32.4h-1.2v-1.2h1.2V32.4L91.6,32.4z M91.6,36.9h0.7V38h-2.5v-1.1h0.7V34h-0.7v-1.1h1.8V36.9L91.6,36.9z"
		/>
	<path class="st0" d="M96.8,35.5c0-0.8-0.7-1.6-1.5-1.6c-0.8,0-1.6,0.7-1.6,1.5c0,0.8,0.7,1.6,1.5,1.6C96.1,37,96.8,36.3,96.8,35.5
		L96.8,35.5z M92.6,35.5c0-1.5,1.2-2.7,2.7-2.7c1.5,0,2.7,1.2,2.7,2.7c0,1.5-1.2,2.7-2.7,2.7C93.7,38.2,92.6,36.9,92.6,35.5
		L92.6,35.5z"/>
	<path class="st0" d="M98.8,34h-0.7v-1.1h1.8v0.7c0.3-0.6,0.9-0.8,1.5-0.8c0.6,0,1.1,0.2,1.5,0.6c0.4,0.5,0.4,0.9,0.4,1.5v2h0.7V38
		h-2.5v-1.1h0.7v-1.7c0-0.3,0-0.6-0.2-0.9c-0.2-0.3-0.6-0.4-0.9-0.4c-0.4,0-0.7,0.1-0.9,0.4c-0.2,0.3-0.2,0.7-0.2,1.1v1.5h0.7V38
		h-2.5v-1.1h0.7V34L98.8,34z"/>
</g>
</svg>
